<mxfile host="app.diagrams.net" agent="Mozilla/5.0 (Macintosh; Intel Mac OS X 10_15_7) AppleWebKit/605.1.15 (KHTML, like Gecko) Version/18.3.1 Safari/605.1.15" version="26.2.13">
  <diagram name="Page-1" id="dszph46jkRVSdkOM4K8T">
    <mxGraphModel dx="1865" dy="1150" grid="1" gridSize="10" guides="1" tooltips="1" connect="1" arrows="1" fold="1" page="1" pageScale="1" pageWidth="850" pageHeight="1100" math="1" shadow="0">
      <root>
        <mxCell id="0" />
        <mxCell id="1" parent="0" />
        <mxCell id="fDItz-cno3N9XpYqwmmH-1" value="" style="shape=trapezoid;perimeter=trapezoidPerimeter;whiteSpace=wrap;html=1;fixedSize=1;rotation=90;" vertex="1" parent="1">
          <mxGeometry x="-502.5" y="262.5" width="120" height="155" as="geometry" />
        </mxCell>
        <mxCell id="fDItz-cno3N9XpYqwmmH-2" value="Encoder" style="text;html=1;align=center;verticalAlign=middle;resizable=0;points=[];autosize=1;strokeColor=none;fillColor=none;fontSize=24;" vertex="1" parent="1">
          <mxGeometry x="-497.5" y="320" width="110" height="40" as="geometry" />
        </mxCell>
        <mxCell id="fDItz-cno3N9XpYqwmmH-3" value="" style="ellipse;whiteSpace=wrap;html=1;aspect=fixed;fillColor=#f5f5f5;fontColor=#333333;strokeColor=#666666;" vertex="1" parent="1">
          <mxGeometry x="-640" y="200" width="50" height="50" as="geometry" />
        </mxCell>
        <mxCell id="fDItz-cno3N9XpYqwmmH-4" value="" style="ellipse;whiteSpace=wrap;html=1;aspect=fixed;fillColor=#f5f5f5;fontColor=#333333;strokeColor=#666666;" vertex="1" parent="1">
          <mxGeometry x="-640" y="273" width="50" height="50" as="geometry" />
        </mxCell>
        <mxCell id="fDItz-cno3N9XpYqwmmH-5" value="" style="ellipse;whiteSpace=wrap;html=1;aspect=fixed;fillColor=#f5f5f5;fontColor=#333333;strokeColor=#666666;" vertex="1" parent="1">
          <mxGeometry x="-640" y="417.5" width="50" height="50" as="geometry" />
        </mxCell>
        <mxCell id="fDItz-cno3N9XpYqwmmH-6" value="" style="shape=waypoint;sketch=0;fillStyle=solid;size=6;pointerEvents=1;points=[];fillColor=#f5f5f5;resizable=0;rotatable=0;perimeter=centerPerimeter;snapToPoint=1;fontColor=#333333;strokeColor=#666666;" vertex="1" parent="1">
          <mxGeometry x="-625" y="340" width="20" height="20" as="geometry" />
        </mxCell>
        <mxCell id="fDItz-cno3N9XpYqwmmH-7" value="" style="shape=waypoint;sketch=0;fillStyle=solid;size=6;pointerEvents=1;points=[];fillColor=#f5f5f5;resizable=0;rotatable=0;perimeter=centerPerimeter;snapToPoint=1;fontColor=#333333;strokeColor=#666666;" vertex="1" parent="1">
          <mxGeometry x="-625" y="360" width="20" height="20" as="geometry" />
        </mxCell>
        <mxCell id="fDItz-cno3N9XpYqwmmH-8" value="" style="shape=waypoint;sketch=0;fillStyle=solid;size=6;pointerEvents=1;points=[];fillColor=#f5f5f5;resizable=0;rotatable=0;perimeter=centerPerimeter;snapToPoint=1;fontColor=#333333;strokeColor=#666666;" vertex="1" parent="1">
          <mxGeometry x="-625" y="380" width="20" height="20" as="geometry" />
        </mxCell>
        <mxCell id="fDItz-cno3N9XpYqwmmH-9" value="" style="endArrow=none;html=1;rounded=0;exitX=1;exitY=0.5;exitDx=0;exitDy=0;entryX=0.5;entryY=1;entryDx=0;entryDy=0;" edge="1" parent="1" source="fDItz-cno3N9XpYqwmmH-3" target="fDItz-cno3N9XpYqwmmH-1">
          <mxGeometry width="50" height="50" relative="1" as="geometry">
            <mxPoint x="-320" y="430" as="sourcePoint" />
            <mxPoint x="-270" y="380" as="targetPoint" />
          </mxGeometry>
        </mxCell>
        <mxCell id="fDItz-cno3N9XpYqwmmH-10" value="" style="endArrow=none;html=1;rounded=0;exitX=1;exitY=0.5;exitDx=0;exitDy=0;" edge="1" parent="1" source="fDItz-cno3N9XpYqwmmH-4">
          <mxGeometry width="50" height="50" relative="1" as="geometry">
            <mxPoint x="-320" y="430" as="sourcePoint" />
            <mxPoint x="-520" y="340" as="targetPoint" />
          </mxGeometry>
        </mxCell>
        <mxCell id="fDItz-cno3N9XpYqwmmH-11" value="" style="endArrow=none;html=1;rounded=0;exitX=1;exitY=0.5;exitDx=0;exitDy=0;" edge="1" parent="1" source="fDItz-cno3N9XpYqwmmH-5">
          <mxGeometry width="50" height="50" relative="1" as="geometry">
            <mxPoint x="-320" y="430" as="sourcePoint" />
            <mxPoint x="-520" y="340" as="targetPoint" />
          </mxGeometry>
        </mxCell>
        <mxCell id="fDItz-cno3N9XpYqwmmH-14" value="" style="ellipse;whiteSpace=wrap;html=1;aspect=fixed;fillColor=#fff2cc;strokeColor=#d6b656;" vertex="1" parent="1">
          <mxGeometry x="-320" y="288.5" width="50" height="50" as="geometry" />
        </mxCell>
        <mxCell id="fDItz-cno3N9XpYqwmmH-15" value="" style="ellipse;whiteSpace=wrap;html=1;aspect=fixed;fillColor=#fff2cc;strokeColor=#d6b656;" vertex="1" parent="1">
          <mxGeometry x="-320" y="361.5" width="50" height="50" as="geometry" />
        </mxCell>
        <mxCell id="fDItz-cno3N9XpYqwmmH-16" value="" style="rounded=0;whiteSpace=wrap;html=1;dashed=1;dashPattern=8 8;fillColor=none;strokeColor=#d6b656;" vertex="1" parent="1">
          <mxGeometry x="-330" y="275" width="70" height="150" as="geometry" />
        </mxCell>
        <mxCell id="fDItz-cno3N9XpYqwmmH-21" value="" style="shape=trapezoid;perimeter=trapezoidPerimeter;whiteSpace=wrap;html=1;fixedSize=1;rotation=90;flipV=1;" vertex="1" parent="1">
          <mxGeometry x="-200" y="260" width="120" height="155" as="geometry" />
        </mxCell>
        <mxCell id="fDItz-cno3N9XpYqwmmH-22" value="Decoder" style="text;html=1;align=center;verticalAlign=middle;resizable=0;points=[];autosize=1;strokeColor=none;fillColor=none;fontSize=24;" vertex="1" parent="1">
          <mxGeometry x="-195" y="317.5" width="110" height="40" as="geometry" />
        </mxCell>
        <mxCell id="fDItz-cno3N9XpYqwmmH-23" value="" style="ellipse;whiteSpace=wrap;html=1;aspect=fixed;fillColor=#d5e8d4;strokeColor=#82b366;" vertex="1" parent="1">
          <mxGeometry x="-10" y="200" width="50" height="50" as="geometry" />
        </mxCell>
        <mxCell id="fDItz-cno3N9XpYqwmmH-24" value="" style="ellipse;whiteSpace=wrap;html=1;aspect=fixed;fillColor=#d5e8d4;strokeColor=#82b366;" vertex="1" parent="1">
          <mxGeometry x="-10" y="273" width="50" height="50" as="geometry" />
        </mxCell>
        <mxCell id="fDItz-cno3N9XpYqwmmH-25" value="" style="ellipse;whiteSpace=wrap;html=1;aspect=fixed;fillColor=#d5e8d4;strokeColor=#82b366;" vertex="1" parent="1">
          <mxGeometry x="-10" y="417.5" width="50" height="50" as="geometry" />
        </mxCell>
        <mxCell id="fDItz-cno3N9XpYqwmmH-26" value="" style="shape=waypoint;sketch=0;fillStyle=solid;size=6;pointerEvents=1;points=[];fillColor=#d5e8d4;resizable=0;rotatable=0;perimeter=centerPerimeter;snapToPoint=1;strokeColor=#82b366;" vertex="1" parent="1">
          <mxGeometry x="5" y="340" width="20" height="20" as="geometry" />
        </mxCell>
        <mxCell id="fDItz-cno3N9XpYqwmmH-27" value="" style="shape=waypoint;sketch=0;fillStyle=solid;size=6;pointerEvents=1;points=[];fillColor=#d5e8d4;resizable=0;rotatable=0;perimeter=centerPerimeter;snapToPoint=1;strokeColor=#82b366;" vertex="1" parent="1">
          <mxGeometry x="5" y="360" width="20" height="20" as="geometry" />
        </mxCell>
        <mxCell id="fDItz-cno3N9XpYqwmmH-28" value="" style="shape=waypoint;sketch=0;fillStyle=solid;size=6;pointerEvents=1;points=[];fillColor=#d5e8d4;resizable=0;rotatable=0;perimeter=centerPerimeter;snapToPoint=1;strokeColor=#82b366;" vertex="1" parent="1">
          <mxGeometry x="5" y="380" width="20" height="20" as="geometry" />
        </mxCell>
        <mxCell id="fDItz-cno3N9XpYqwmmH-29" value="" style="endArrow=none;html=1;rounded=0;entryX=0.5;entryY=0;entryDx=0;entryDy=0;exitX=0;exitY=0.5;exitDx=0;exitDy=0;" edge="1" parent="1" source="fDItz-cno3N9XpYqwmmH-14" target="fDItz-cno3N9XpYqwmmH-1">
          <mxGeometry width="50" height="50" relative="1" as="geometry">
            <mxPoint x="-360" y="430" as="sourcePoint" />
            <mxPoint x="-370" y="380" as="targetPoint" />
          </mxGeometry>
        </mxCell>
        <mxCell id="fDItz-cno3N9XpYqwmmH-30" value="" style="endArrow=none;html=1;rounded=0;entryX=0.5;entryY=0;entryDx=0;entryDy=0;exitX=0;exitY=0.5;exitDx=0;exitDy=0;" edge="1" parent="1" source="fDItz-cno3N9XpYqwmmH-15" target="fDItz-cno3N9XpYqwmmH-1">
          <mxGeometry width="50" height="50" relative="1" as="geometry">
            <mxPoint x="-420" y="430" as="sourcePoint" />
            <mxPoint x="-370" y="380" as="targetPoint" />
          </mxGeometry>
        </mxCell>
        <mxCell id="fDItz-cno3N9XpYqwmmH-35" value="" style="endArrow=none;html=1;rounded=0;exitX=1;exitY=0.5;exitDx=0;exitDy=0;entryX=0.5;entryY=1;entryDx=0;entryDy=0;" edge="1" parent="1" source="fDItz-cno3N9XpYqwmmH-14" target="fDItz-cno3N9XpYqwmmH-21">
          <mxGeometry width="50" height="50" relative="1" as="geometry">
            <mxPoint x="-200" y="380" as="sourcePoint" />
            <mxPoint x="-200" y="304" as="targetPoint" />
          </mxGeometry>
        </mxCell>
        <mxCell id="fDItz-cno3N9XpYqwmmH-36" value="" style="endArrow=none;html=1;rounded=0;exitX=1;exitY=0.5;exitDx=0;exitDy=0;entryX=0.5;entryY=1;entryDx=0;entryDy=0;" edge="1" parent="1" source="fDItz-cno3N9XpYqwmmH-15" target="fDItz-cno3N9XpYqwmmH-21">
          <mxGeometry width="50" height="50" relative="1" as="geometry">
            <mxPoint x="-200" y="380" as="sourcePoint" />
            <mxPoint x="-200" y="377" as="targetPoint" />
          </mxGeometry>
        </mxCell>
        <mxCell id="fDItz-cno3N9XpYqwmmH-39" value="" style="endArrow=none;html=1;rounded=0;entryX=0;entryY=0.5;entryDx=0;entryDy=0;exitX=0.5;exitY=0;exitDx=0;exitDy=0;" edge="1" parent="1" source="fDItz-cno3N9XpYqwmmH-21" target="fDItz-cno3N9XpYqwmmH-23">
          <mxGeometry width="50" height="50" relative="1" as="geometry">
            <mxPoint x="-360" y="410" as="sourcePoint" />
            <mxPoint x="-310" y="360" as="targetPoint" />
          </mxGeometry>
        </mxCell>
        <mxCell id="fDItz-cno3N9XpYqwmmH-40" value="" style="endArrow=none;html=1;rounded=0;entryX=0;entryY=0.5;entryDx=0;entryDy=0;exitX=0.5;exitY=0;exitDx=0;exitDy=0;" edge="1" parent="1" source="fDItz-cno3N9XpYqwmmH-21" target="fDItz-cno3N9XpYqwmmH-24">
          <mxGeometry width="50" height="50" relative="1" as="geometry">
            <mxPoint x="-360" y="410" as="sourcePoint" />
            <mxPoint x="-310" y="360" as="targetPoint" />
          </mxGeometry>
        </mxCell>
        <mxCell id="fDItz-cno3N9XpYqwmmH-41" value="" style="endArrow=none;html=1;rounded=0;entryX=0;entryY=0.5;entryDx=0;entryDy=0;exitX=0.5;exitY=0;exitDx=0;exitDy=0;" edge="1" parent="1" source="fDItz-cno3N9XpYqwmmH-21" target="fDItz-cno3N9XpYqwmmH-25">
          <mxGeometry width="50" height="50" relative="1" as="geometry">
            <mxPoint x="-360" y="410" as="sourcePoint" />
            <mxPoint x="-310" y="360" as="targetPoint" />
          </mxGeometry>
        </mxCell>
        <mxCell id="fDItz-cno3N9XpYqwmmH-42" value="" style="rounded=0;whiteSpace=wrap;html=1;fillColor=none;fontColor=#333333;strokeColor=#666666;dashed=1;dashPattern=12 12;" vertex="1" parent="1">
          <mxGeometry x="-650" y="190" width="70" height="290" as="geometry" />
        </mxCell>
        <mxCell id="fDItz-cno3N9XpYqwmmH-43" value="$$x$$" style="text;html=1;align=center;verticalAlign=middle;resizable=0;points=[];autosize=1;strokeColor=none;fillColor=none;fontSize=24;fontColor=#666666;" vertex="1" parent="1">
          <mxGeometry x="-660" y="145" width="90" height="40" as="geometry" />
        </mxCell>
        <mxCell id="fDItz-cno3N9XpYqwmmH-44" value="" style="rounded=0;whiteSpace=wrap;html=1;fillColor=none;strokeColor=#82b366;dashed=1;dashPattern=12 12;" vertex="1" parent="1">
          <mxGeometry x="-20" y="192.5" width="70" height="290" as="geometry" />
        </mxCell>
        <mxCell id="fDItz-cno3N9XpYqwmmH-45" value="&lt;font style=&quot;font-size: 24px;&quot;&gt;$$\hat{x}$$&lt;/font&gt;" style="text;html=1;align=center;verticalAlign=middle;resizable=0;points=[];autosize=1;strokeColor=none;fillColor=none;" vertex="1" parent="1">
          <mxGeometry x="-50" y="152.5" width="140" height="40" as="geometry" />
        </mxCell>
        <mxCell id="fDItz-cno3N9XpYqwmmH-47" value="&lt;font style=&quot;font-size: 24px;&quot;&gt;$$z = e(x)$$&lt;/font&gt;" style="text;html=1;align=center;verticalAlign=middle;resizable=0;points=[];autosize=1;strokeColor=none;fillColor=none;" vertex="1" parent="1">
          <mxGeometry x="-360" y="233" width="160" height="40" as="geometry" />
        </mxCell>
      </root>
    </mxGraphModel>
  </diagram>
</mxfile>
